# xmcd
#
# Track frame offsets:
#	182
#	13962
#	29040
#	44387
#	59012
#	70852
#	88247
#	101542
#	113875
#	127822
#	141697
#	153620
#	165892
#	178507
#	191590
#	205422
#
# Disc length: 2892
#
# Revision: 2
# Processed by: cddbd v1.5.1PL0 Copyright (c) Steve Scherf et al.
# Submitted via: CDex 1.51
# Normalized: r1:DSETVAR1,TSWAP
#
DISCID=ed0b4a10
DTITLE=Various Artist - Pocket Jazz Big Bands
DYEAR=1900
DGENRE=Jazz
TTITLE0=Woody Herman - Caldonia
TTITLE1=Woody Herman - Apple Honey
TTITLE2=Woody Herman - Goosey Gander
TTITLE3=Woody Herman - Northwest Passage
TTITLE4=Les Brown - Leap Frog
TTITLE5=Les Brown - Sentimental Journey
TTITLE6=Les Brown - I've Got My Love To Keep Me Warm
TTITLE7=Les Brown - Just One Of Those Things
TTITLE8=Benny Goodman - Don't Be That Way
TTITLE9=Benny Goodman - Scarecrow
TTITLE10=Benny Goodman - Mission To Moscow
TTITLE11=Benny Goodman - Clarinade
TTITLE12=Cab Calloway - Pickin' Up The Cabbage
TTITLE13=Cab Calloway - Bye Bye Blues
TTITLE14=Cab Calloway - Take The 'a' Train
TTITLE15=Cab Calloway - Manhattan Jam
EXTD=
EXTT0=
EXTT1=
EXTT2=
EXTT3=
EXTT4=
EXTT5=
EXTT6=
EXTT7=
EXTT8=
EXTT9=
EXTT10=
EXTT11=
EXTT12=
EXTT13=
EXTT14=
EXTT15=
PLAYORDER=
